<svg xmlns="http://www.w3.org/2000/svg" version="1.1" xmlns:xlink="http://www.w3.org/1999/xlink" xmlns:svgjs="http://svgjs.dev/svgjs" width="2000" height="439" viewBox="0 0 2000 439"><g transform="matrix(1,0,0,1,-1.2121212121213603,-2.286665249497645)"><svg viewBox="0 0 396 87" data-background-color="#ffffff" preserveAspectRatio="xMidYMid meet" height="439" width="2000" xmlns="http://www.w3.org/2000/svg" xmlns:xlink="http://www.w3.org/1999/xlink"><g id="tight-bounds" transform="matrix(1,0,0,1,0.24000000000003752,0.45316600616467895)"><svg viewBox="0 0 395.5199999999999 86.09366798767061" height="86.09366798767061" width="395.5199999999999"><g><svg viewBox="0 0 395.5199999999999 86.09366798767061" height="86.09366798767061" width="395.5199999999999"><g><svg viewBox="0 0 395.5199999999999 86.09366798767061" height="86.09366798767061" width="395.5199999999999"><g id="textblocktransform"><svg viewBox="0 0 395.5199999999999 86.09366798767061" height="86.09366798767061" width="395.5199999999999" id="textblock"><g><svg viewBox="0 0 395.5199999999999 86.09366798767061" height="86.09366798767061" width="395.5199999999999"><g transform="matrix(1,0,0,1,0,0)"><svg width="395.5199999999999" viewBox="3.25 -35.45 166.32 36.21" height="86.09366798767061" data-palette-color="#2a2c35"><path d="M31.25-10.5L31.25-10.5Q31.25-8.33 30.42-6.42 29.59-4.52 28.16-3.09 26.73-1.66 24.83-0.83 22.92 0 20.75 0L20.75 0 3.25 0 3.25-35.01 20.75-35.01Q22.92-35.01 24.83-34.18 26.73-33.35 28.16-31.92 29.59-30.49 30.42-28.59 31.25-26.68 31.25-24.51L31.25-24.51Q31.25-23.54 30.98-22.51 30.71-21.48 30.22-20.53 29.74-19.58 29.05-18.8 28.37-18.02 27.54-17.5L27.54-17.5Q28.39-17.04 29.08-16.25 29.76-15.45 30.25-14.5 30.74-13.55 30.99-12.51 31.25-11.47 31.25-10.5ZM10.25-13.99L10.25-7.01 20.75-7.01Q21.48-7.01 22.12-7.28 22.75-7.54 23.23-8.02 23.71-8.5 23.97-9.13 24.24-9.77 24.24-10.5L24.24-10.5Q24.24-11.23 23.97-11.87 23.71-12.5 23.23-12.98 22.75-13.45 22.12-13.72 21.48-13.99 20.75-13.99L20.75-13.99 10.25-13.99ZM10.25-28L10.25-21 20.75-21Q21.48-21 22.12-21.26 22.75-21.53 23.23-22.01 23.71-22.49 23.97-23.13 24.24-23.78 24.24-24.51L24.24-24.51Q24.24-25.24 23.97-25.88 23.71-26.51 23.23-26.99 22.75-27.47 22.12-27.73 21.48-28 20.75-28L20.75-28 10.25-28ZM70.85-17.36L70.85-17.36Q70.85-14.87 70.2-12.56 69.55-10.25 68.38-8.24 67.21-6.23 65.55-4.57 63.89-2.91 61.89-1.72 59.89-0.54 57.57 0.11 55.25 0.76 52.76 0.76L52.76 0.76Q50.27 0.76 47.96 0.11 45.65-0.54 43.64-1.72 41.62-2.91 39.96-4.57 38.3-6.23 37.12-8.24 35.94-10.25 35.29-12.56 34.64-14.87 34.64-17.36L34.64-17.36Q34.64-19.85 35.29-22.17 35.94-24.49 37.12-26.49 38.3-28.49 39.96-30.15 41.62-31.81 43.64-32.98 45.65-34.16 47.96-34.8 50.27-35.45 52.76-35.45L52.76-35.45Q55.25-35.45 57.57-34.8 59.89-34.16 61.89-32.98 63.89-31.81 65.55-30.15 67.21-28.49 68.38-26.49 69.55-24.49 70.2-22.17 70.85-19.85 70.85-17.36ZM63.89-17.36L63.89-17.36Q63.89-19.65 63.01-21.69 62.13-23.73 60.63-25.23 59.13-26.73 57.09-27.61 55.05-28.49 52.76-28.49L52.76-28.49Q50.44-28.49 48.41-27.61 46.38-26.73 44.87-25.23 43.36-23.73 42.48-21.69 41.6-19.65 41.6-17.36L41.6-17.36Q41.6-15.06 42.48-13.05 43.36-11.04 44.87-9.52 46.38-8.01 48.41-7.13 50.44-6.25 52.76-6.25L52.76-6.25Q55.05-6.25 57.09-7.13 59.13-8.01 60.63-9.52 62.13-11.04 63.01-13.05 63.89-15.06 63.89-17.36ZM109.74-17.36L109.74-17.36Q109.74-14.87 109.09-12.56 108.44-10.25 107.27-8.24 106.1-6.23 104.44-4.57 102.78-2.91 100.78-1.72 98.77-0.54 96.45 0.11 94.14 0.76 91.65 0.76L91.65 0.76Q89.16 0.76 86.85 0.11 84.54-0.54 82.53-1.72 80.51-2.91 78.85-4.57 77.19-6.23 76.01-8.24 74.82-10.25 74.18-12.56 73.53-14.87 73.53-17.36L73.53-17.36Q73.53-19.85 74.18-22.17 74.82-24.49 76.01-26.49 77.19-28.49 78.85-30.15 80.51-31.81 82.53-32.98 84.54-34.16 86.85-34.8 89.16-35.45 91.65-35.45L91.65-35.45Q94.14-35.45 96.45-34.8 98.77-34.16 100.78-32.98 102.78-31.81 104.44-30.15 106.1-28.49 107.27-26.49 108.44-24.49 109.09-22.17 109.74-19.85 109.74-17.36ZM102.78-17.36L102.78-17.36Q102.78-19.65 101.9-21.69 101.02-23.73 99.52-25.23 98.02-26.73 95.98-27.61 93.94-28.49 91.65-28.49L91.65-28.49Q89.33-28.49 87.3-27.61 85.27-26.73 83.76-25.23 82.25-23.73 81.37-21.69 80.49-19.65 80.49-17.36L80.49-17.36Q80.49-15.06 81.37-13.05 82.25-11.04 83.76-9.52 85.27-8.01 87.3-7.13 89.33-6.25 91.65-6.25L91.65-6.25Q93.94-6.25 95.98-7.13 98.02-8.01 99.52-9.52 101.02-11.04 101.9-13.05 102.78-15.06 102.78-17.36ZM112.27-24.51L112.27-24.51Q112.27-26.68 113.1-28.59 113.93-30.49 115.36-31.92 116.79-33.35 118.69-34.18 120.6-35.01 122.77-35.01L122.77-35.01 138.84-35.01 138.84-28 122.77-28Q122.04-28 121.4-27.73 120.77-27.47 120.29-26.99 119.82-26.51 119.55-25.88 119.28-25.24 119.28-24.51L119.28-24.51Q119.28-23.78 119.55-23.13 119.82-22.49 120.29-22.01 120.77-21.53 121.4-21.26 122.04-21 122.77-21L122.77-21 129.78-21Q131.95-21 133.87-20.18 135.78-19.36 137.21-17.93 138.64-16.5 139.46-14.59 140.28-12.67 140.28-10.5L140.28-10.5Q140.28-8.33 139.46-6.42 138.64-4.52 137.21-3.09 135.78-1.66 133.87-0.83 131.95 0 129.78 0L129.78 0 114.23 0 114.23-7.01 129.78-7.01Q130.51-7.01 131.14-7.28 131.78-7.54 132.26-8.02 132.73-8.5 133-9.13 133.27-9.77 133.27-10.5L133.27-10.5Q133.27-11.23 133-11.87 132.73-12.5 132.26-12.98 131.78-13.45 131.14-13.72 130.51-13.99 129.78-13.99L129.78-13.99 122.77-13.99Q120.6-13.99 118.69-14.82 116.79-15.65 115.36-17.08 113.93-18.51 113.1-20.42 112.27-22.34 112.27-24.51ZM159.07-28L159.07 0 152.09 0 152.09-28 141.57-28 141.57-35.01 169.57-35.01 169.57-28 159.07-28Z" opacity="1" transform="matrix(1,0,0,1,0,0)" fill="#ffffff" class="wordmark-text-0" data-fill-palette-color="primary" id="text-0"></path></svg></g></svg></g></svg></g></svg></g></svg></g><defs></defs></svg><rect width="395.5199999999999" height="86.09366798767061" fill="none" stroke="none" visibility="hidden"></rect></g></svg></g></svg>